<svg id="visual" viewBox="0 0 900 600" xmlns="http://www.w3.org/2000/svg" xmlns:xlink="http://www.w3.org/1999/xlink" version="1.1"><path d="M0 80L16.7 83.8C33.3 87.7 66.7 95.3 100 104.7C133.3 114 166.7 125 200 129.8C233.3 134.7 266.7 133.3 300 123.2C333.3 113 366.7 94 400 87.7C433.3 81.3 466.7 87.7 500 89.5C533.3 91.3 566.7 88.7 600 92C633.3 95.3 666.7 104.7 700 112.3C733.3 120 766.7 126 800 129.7C833.3 133.3 866.7 134.7 883.3 135.3L900 136L900 601L883.3 601C866.7 601 833.3 601 800 601C766.7 601 733.3 601 700 601C666.7 601 633.3 601 600 601C566.7 601 533.3 601 500 601C466.7 601 433.3 601 400 601C366.7 601 333.3 601 300 601C266.7 601 233.3 601 200 601C166.7 601 133.3 601 100 601C66.7 601 33.3 601 16.7 601L0 601Z" fill="#fa7268"></path><path d="M0 228L16.7 224.8C33.3 221.7 66.7 215.3 100 207C133.3 198.7 166.7 188.3 200 192.8C233.3 197.3 266.7 216.7 300 222.8C333.3 229 366.7 222 400 218.8C433.3 215.7 466.7 216.3 500 209C533.3 201.7 566.7 186.3 600 178C633.3 169.7 666.7 168.3 700 169.5C733.3 170.7 766.7 174.3 800 184.3C833.3 194.3 866.7 210.7 883.3 218.8L900 227L900 601L883.3 601C866.7 601 833.3 601 800 601C766.7 601 733.3 601 700 601C666.7 601 633.3 601 600 601C566.7 601 533.3 601 500 601C466.7 601 433.3 601 400 601C366.7 601 333.3 601 300 601C266.7 601 233.3 601 200 601C166.7 601 133.3 601 100 601C66.7 601 33.3 601 16.7 601L0 601Z" fill="#dc4267"></path><path d="M0 319L16.7 318C33.3 317 66.7 315 100 307.5C133.3 300 166.7 287 200 287.7C233.3 288.3 266.7 302.7 300 304.7C333.3 306.7 366.7 296.3 400 298.3C433.3 300.3 466.7 314.7 500 314.5C533.3 314.3 566.7 299.7 600 290C633.3 280.3 666.7 275.7 700 282C733.3 288.3 766.7 305.7 800 306.2C833.3 306.7 866.7 290.3 883.3 282.2L900 274L900 601L883.3 601C866.7 601 833.3 601 800 601C766.7 601 733.3 601 700 601C666.7 601 633.3 601 600 601C566.7 601 533.3 601 500 601C466.7 601 433.3 601 400 601C366.7 601 333.3 601 300 601C266.7 601 233.3 601 200 601C166.7 601 133.3 601 100 601C66.7 601 33.3 601 16.7 601L0 601Z" fill="#c62368"></path><path d="M0 365L16.7 375.5C33.3 386 66.7 407 100 415.7C133.3 424.3 166.7 420.7 200 412.8C233.3 405 266.7 393 300 384.3C333.3 375.7 366.7 370.3 400 375.5C433.3 380.7 466.7 396.3 500 400.3C533.3 404.3 566.7 396.7 600 394.7C633.3 392.7 666.7 396.3 700 402.8C733.3 409.3 766.7 418.7 800 423.7C833.3 428.7 866.7 429.3 883.3 429.7L900 430L900 601L883.3 601C866.7 601 833.3 601 800 601C766.7 601 733.3 601 700 601C666.7 601 633.3 601 600 601C566.7 601 533.3 601 500 601C466.7 601 433.3 601 400 601C366.7 601 333.3 601 300 601C266.7 601 233.3 601 200 601C166.7 601 133.3 601 100 601C66.7 601 33.3 601 16.7 601L0 601Z" fill="#dc4267"></path><path d="M0 463L16.7 473.8C33.3 484.7 66.7 506.3 100 512.7C133.3 519 166.7 510 200 504.3C233.3 498.7 266.7 496.3 300 491.5C333.3 486.7 366.7 479.3 400 478.8C433.3 478.3 466.7 484.7 500 493C533.3 501.3 566.7 511.7 600 507.7C633.3 503.7 666.7 485.3 700 476.2C733.3 467 766.7 467 800 465.8C833.3 464.7 866.7 462.3 883.3 461.2L900 460L900 601L883.3 601C866.7 601 833.3 601 800 601C766.7 601 733.3 601 700 601C666.7 601 633.3 601 600 601C566.7 601 533.3 601 500 601C466.7 601 433.3 601 400 601C366.7 601 333.3 601 300 601C266.7 601 233.3 601 200 601C166.7 601 133.3 601 100 601C66.7 601 33.3 601 16.7 601L0 601Z" fill="#fa7268"></path></svg>